<svg xmlns="http://www.w3.org/2000/svg"  viewBox="0 0 100 100" width="100px" height="100px"><path fill="#c7ede6" d="M87.215,56.71C88.35,54.555,89,52.105,89,49.5c0-6.621-4.159-12.257-10.001-14.478 C78.999,35.015,79,35.008,79,35c0-11.598-9.402-21-21-21c-9.784,0-17.981,6.701-20.313,15.757C36.211,29.272,34.638,29,33,29 c-7.692,0-14.023,5.793-14.89,13.252C12.906,43.353,9,47.969,9,53.5C9,59.851,14.149,65,20.5,65c0.177,0,0.352-0.012,0.526-0.022 C21.022,65.153,21,65.324,21,65.5C21,76.822,30.178,86,41.5,86c6.437,0,12.175-2.972,15.934-7.614C59.612,80.611,62.64,82,66,82 c4.65,0,8.674-2.65,10.666-6.518C77.718,75.817,78.837,76,80,76c6.075,0,11-4.925,11-11C91,61.689,89.53,58.727,87.215,56.71z"/><path fill="#fff" d="M34.405,81H24.5c-0.276,0-0.5-0.224-0.5-0.5s0.224-0.5,0.5-0.5h9.905c0.276,0,0.5,0.224,0.5,0.5 S34.682,81,34.405,81z"/><path fill="#fff" d="M37.5,81h-1c-0.276,0-0.5-0.224-0.5-0.5s0.224-0.5,0.5-0.5h1c0.276,0,0.5,0.224,0.5,0.5 S37.777,81,37.5,81z"/><path fill="#fff" d="M42.491,83H33.5c-0.276,0-0.5-0.224-0.5-0.5s0.224-0.5,0.5-0.5h8.991c0.276,0,0.5,0.224,0.5,0.5 S42.767,83,42.491,83z"/><path fill="#fff" d="M31.5,83h-1c-0.276,0-0.5-0.224-0.5-0.5s0.224-0.5,0.5-0.5h1c0.276,0,0.5,0.224,0.5,0.5 S31.777,83,31.5,83z"/><path fill="#fff" d="M28.5,83h-2c-0.276,0-0.5-0.224-0.5-0.5s0.224-0.5,0.5-0.5h2c0.276,0,0.5,0.224,0.5,0.5 S28.777,83,28.5,83z"/><path fill="#fff" d="M34.5,85h-2c-0.276,0-0.5-0.224-0.5-0.5s0.224-0.5,0.5-0.5h2c0.276,0,0.5,0.224,0.5,0.5 S34.776,85,34.5,85z"/><path fill="#fff" d="M37.5,76c-0.177,0-0.823,0-1,0c-0.276,0-0.5,0.224-0.5,0.5c0,0.276,0.224,0.5,0.5,0.5 c0.177,0,0.823,0,1,0c0.276,0,0.5-0.224,0.5-0.5C38,76.224,37.776,76,37.5,76z"/><path fill="#fff" d="M37.5,78c-0.177,0-4.823,0-5,0c-0.276,0-0.5,0.224-0.5,0.5c0,0.276,0.224,0.5,0.5,0.5 c0.177,0,4.823,0,5,0c0.276,0,0.5-0.224,0.5-0.5C38,78.224,37.776,78,37.5,78z"/><path fill="#fff" d="M42.5,80c-0.177,0-2.823,0-3,0c-0.276,0-0.5,0.224-0.5,0.5c0,0.276,0.224,0.5,0.5,0.5 c0.177,0,2.823,0,3,0c0.276,0,0.5-0.224,0.5-0.5C43,80.224,42.776,80,42.5,80z"/><path fill="#fff" d="M65.5,18h-10c-0.276,0-0.5-0.224-0.5-0.5s0.224-0.5,0.5-0.5h10c0.276,0,0.5,0.224,0.5,0.5 S65.776,18,65.5,18z"/><path fill="#fff" d="M69.5,18h-2c-0.276,0-0.5-0.224-0.5-0.5s0.224-0.5,0.5-0.5h2c0.276,0,0.5,0.224,0.5,0.5 S69.776,18,69.5,18z"/><path fill="#fff" d="M74.5,20h-10c-0.276,0-0.5-0.224-0.5-0.5s0.224-0.5,0.5-0.5h10c0.276,0,0.5,0.224,0.5,0.5 S74.777,20,74.5,20z"/><path fill="#fff" d="M62.5,20h-1c-0.276,0-0.5-0.224-0.5-0.5s0.224-0.5,0.5-0.5h1c0.276,0,0.5,0.224,0.5,0.5 S62.776,20,62.5,20z"/><path fill="#fff" d="M59.375,20H57.5c-0.276,0-0.5-0.224-0.5-0.5s0.224-0.5,0.5-0.5h1.875c0.276,0,0.5,0.224,0.5,0.5 S59.651,20,59.375,20z"/><path fill="#fff" d="M68.5,16h-5c-0.276,0-0.5-0.224-0.5-0.5s0.224-0.5,0.5-0.5h5c0.276,0,0.5,0.224,0.5,0.5 S68.777,16,68.5,16z"/><path fill="#fff" d="M65.5,22h-2c-0.276,0-0.5-0.224-0.5-0.5s0.224-0.5,0.5-0.5h2c0.276,0,0.5,0.224,0.5,0.5 S65.776,22,65.5,22z"/><g><path fill="#fdfcef" d="M84.123,38.531c1.883,0,3.517,0,3.54,0c2.11,0,3.821-1.674,3.821-3.739 c0-1.802-1.302-3.305-3.035-3.66c0.02-0.158,0.034-0.317,0.034-0.48c0-2.139-1.772-3.873-3.957-3.873 c-1.29,0-2.433,0.607-3.155,1.543c-0.185-2.381-2.358-4.218-4.9-3.913c-1.859,0.223-3.397,1.629-3.739,3.431 c-0.11,0.578-0.098,1.139,0.011,1.665c-0.498-0.525-1.208-0.856-1.998-0.856c-1.446,0-2.627,1.102-2.72,2.494 C67.367,31,66.652,31.01,65.9,31.286c-1.438,0.528-2.462,1.853-2.522,3.356c-0.085,2.133,1.657,3.889,3.818,3.889 c0.164,0,0.741,0,0.874,0h7.934 M77.645,38.531h0.36"/><path fill="#472b29" d="M87.662,39.031h-3.54c-0.276,0-0.5-0.224-0.5-0.5s0.224-0.5,0.5-0.5h3.54 c1.831,0,3.321-1.453,3.321-3.239c0-1.524-1.108-2.857-2.637-3.17c-0.257-0.052-0.429-0.294-0.396-0.554 c0.018-0.137,0.03-0.275,0.03-0.416c0-1.86-1.551-3.373-3.457-3.373c-1.093,0-2.099,0.491-2.76,1.348 c-0.125,0.165-0.343,0.232-0.538,0.174c-0.198-0.059-0.34-0.234-0.355-0.44c-0.079-1.019-0.565-1.943-1.37-2.603 c-0.828-0.68-1.886-0.984-2.973-0.853c-1.646,0.197-3.006,1.442-3.307,3.028c-0.094,0.494-0.091,0.988,0.009,1.471 c0.046,0.219-0.06,0.441-0.258,0.544c-0.196,0.104-0.439,0.064-0.595-0.099c-0.428-0.451-1.008-0.7-1.635-0.7 c-1.17,0-2.146,0.891-2.221,2.027c-0.01,0.145-0.082,0.279-0.198,0.366c-0.115,0.088-0.263,0.12-0.406,0.089 c-0.639-0.139-1.241-0.097-1.847,0.124c-1.262,0.464-2.144,1.632-2.193,2.906c-0.035,0.875,0.282,1.708,0.895,2.345 c0.635,0.661,1.495,1.024,2.423,1.024h8.808c0.276,0,0.5,0.224,0.5,0.5s-0.224,0.5-0.5,0.5h-8.808 c-1.185,0-2.331-0.485-3.144-1.332c-0.803-0.835-1.219-1.928-1.174-3.078c0.066-1.674,1.212-3.203,2.849-3.805 c0.612-0.225,1.245-0.307,1.881-0.245c0.345-1.396,1.629-2.424,3.136-2.424c0.493,0,0.977,0.113,1.413,0.323 c0.01-0.242,0.037-0.484,0.083-0.726c0.381-2.009,2.096-3.585,4.17-3.834c1.364-0.16,2.686,0.218,3.727,1.073 c0.747,0.613,1.278,1.409,1.546,2.301c0.791-0.648,1.785-1.006,2.843-1.006c2.458,0,4.457,1.961,4.457,4.373 c0,0.034-0.001,0.068-0.002,0.103c1.765,0.555,3.004,2.188,3.004,4.038C91.984,37.129,90.045,39.031,87.662,39.031z M78.004,39.031h-0.359c-0.276,0-0.5-0.224-0.5-0.5s0.224-0.5,0.5-0.5h0.359c0.276,0,0.5,0.224,0.5,0.5 S78.281,39.031,78.004,39.031z"/><path fill="#472b29" d="M85.955,33.227c-0.018,0-0.036-0.002-0.055-0.006c-0.135-0.03-0.22-0.164-0.189-0.299 c0.038-0.167,0.095-0.329,0.17-0.479c0.604-1.223,2.273-1.673,3.721-1.006c0.126,0.058,0.181,0.207,0.122,0.332 c-0.057,0.125-0.209,0.179-0.331,0.122c-1.204-0.556-2.579-0.21-3.063,0.774c-0.058,0.115-0.102,0.238-0.13,0.367 C86.173,33.148,86.07,33.227,85.955,33.227z"/><g><path fill="#472b29" d="M80.796,39.031h-1.107c-0.276,0-0.5-0.224-0.5-0.5s0.224-0.5,0.5-0.5h1.107 c0.276,0,0.5,0.224,0.5,0.5S81.073,39.031,80.796,39.031z"/></g></g><g><path fill="#fdfcef" d="M30.342,32.507h10.151c0.171,0,0.908,0,1.118,0c2.765,0,4.993-2.295,4.885-5.085 c-0.077-1.964-1.387-3.696-3.227-4.387c-0.963-0.361-1.877-0.373-2.717-0.188c-0.119-1.82-1.63-3.261-3.48-3.261 c-1.011,0-1.919,0.432-2.557,1.119c0.14-0.688,0.154-1.422,0.014-2.177c-0.438-2.356-2.405-4.195-4.784-4.486 c-3.253-0.398-6.033,2.004-6.27,5.116c-0.924-1.223-2.386-2.017-4.037-2.017c-2.796,0-5.063,2.267-5.063,5.063 c0,0.213,0.017,0.422,0.043,0.628c-2.218,0.463-3.884,2.429-3.884,4.784c0,2.7,2.189,4.889,4.888,4.889c0.071,0,11.762,0,11.762,0"/><path fill="#472b29" d="M15.424,33.007h11.762c0.276,0,0.5-0.224,0.5-0.5s-0.224-0.5-0.5-0.5H15.424 c-2.42,0-4.389-1.969-4.389-4.389c0-2.067,1.466-3.873,3.486-4.295c0.254-0.053,0.426-0.292,0.394-0.55 c-0.022-0.186-0.039-0.375-0.039-0.567c0-2.516,2.047-4.563,4.563-4.563c1.438,0,2.765,0.663,3.638,1.818 c0.125,0.166,0.342,0.237,0.539,0.179c0.2-0.059,0.342-0.235,0.358-0.442c0.104-1.377,0.778-2.671,1.85-3.549 c1.084-0.887,2.452-1.279,3.861-1.109c2.165,0.265,3.955,1.943,4.353,4.081c0.124,0.667,0.12,1.335-0.013,1.986 c-0.044,0.22,0.063,0.442,0.262,0.544c0.197,0.102,0.442,0.061,0.595-0.104c0.574-0.619,1.353-0.959,2.19-0.959 c1.568,0,2.878,1.227,2.98,2.793c0.01,0.146,0.082,0.28,0.199,0.367c0.116,0.087,0.268,0.119,0.407,0.088 c0.844-0.186,1.64-0.131,2.434,0.167c1.669,0.626,2.836,2.209,2.903,3.938c0.047,1.207-0.387,2.35-1.222,3.218 c-0.835,0.869-1.959,1.347-3.163,1.347h-11.27c-0.276,0-0.5,0.224-0.5,0.5s0.224,0.5,0.5,0.5h11.27 c1.479,0,2.858-0.587,3.884-1.653s1.559-2.469,1.501-3.951c-0.084-2.126-1.511-4.069-3.552-4.836c-0.8-0.3-1.628-0.4-2.468-0.298 c-0.377-1.823-1.996-3.182-3.904-3.182c-0.685,0-1.354,0.179-1.944,0.51c0.001-0.386-0.035-0.773-0.107-1.159 c-0.476-2.562-2.619-4.573-5.214-4.891c-1.688-0.206-3.321,0.267-4.616,1.328c-1.004,0.823-1.716,1.951-2.038,3.193 c-1.012-0.916-2.318-1.425-3.713-1.425c-3.067,0-5.563,2.496-5.563,5.563c0,0.083,0.002,0.166,0.007,0.249 c-2.254,0.672-3.848,2.777-3.848,5.164C10.035,30.59,12.452,33.007,15.424,33.007z"/><path fill="#fdfcef" d="M30.018,21.738c1.808-0.119,3.365,1.13,3.476,2.789c0.014,0.206,0.005,0.409-0.025,0.606 c0.349-0.394,0.865-0.661,1.458-0.7c1.085-0.071,2.022,0.645,2.158,1.62c0.197-0.054,0.403-0.09,0.616-0.104 c1.582-0.104,2.944,0.989,3.042,2.441"/><path fill="#472b29" d="M40.743,28.64c0.006,0,0.011,0,0.017,0c0.138-0.009,0.242-0.128,0.232-0.266 c-0.106-1.586-1.563-2.783-3.308-2.674c-0.135,0.009-0.271,0.027-0.408,0.053c-0.272-0.967-1.255-1.639-2.365-1.568 c-0.426,0.028-0.824,0.161-1.163,0.382c-0.001-0.019-0.002-0.037-0.004-0.055c-0.12-1.794-1.8-3.146-3.742-3.022 c-0.138,0.009-0.242,0.128-0.232,0.266c0.008,0.137,0.106,0.245,0.266,0.233c1.658-0.104,3.108,1.038,3.211,2.557 c0.012,0.186,0.004,0.372-0.023,0.551c-0.017,0.11,0.041,0.217,0.141,0.265c0.102,0.046,0.221,0.022,0.294-0.061 c0.317-0.358,0.786-0.583,1.287-0.616c0.959-0.064,1.774,0.555,1.893,1.405c0.011,0.071,0.051,0.134,0.11,0.174 s0.135,0.052,0.203,0.033c0.189-0.051,0.38-0.084,0.567-0.096c1.452-0.099,2.687,0.896,2.776,2.208 C40.503,28.538,40.612,28.64,40.743,28.64z"/><g><path fill="#fdfcef" d="M13.444,23.407c1.699-0.801,3.664-0.234,4.389,1.267c0.09,0.186,0.157,0.379,0.201,0.574"/><path fill="#472b29" d="M18.034,25.497c0.019,0,0.037-0.002,0.057-0.006c0.134-0.031,0.218-0.166,0.187-0.3 c-0.05-0.216-0.123-0.427-0.219-0.625c-0.783-1.622-2.9-2.243-4.721-1.384c-0.125,0.059-0.179,0.208-0.12,0.333 c0.06,0.125,0.21,0.177,0.333,0.12c1.575-0.743,3.394-0.226,4.057,1.149c0.08,0.165,0.142,0.34,0.184,0.521 C17.817,25.419,17.92,25.497,18.034,25.497z"/></g></g><path fill="#f47c22" d="M43.75,71.25h35.512c6.068,0,10.988-4.86,10.988-10.855s-4.92-10.855-10.988-10.855	c-1.825,0-3.542,0.446-5.058,1.225c0.032-0.406,0.063-0.811,0.063-1.225c0-8.721-7.155-15.789-15.983-15.789	c-6.071,0-11.782,2.991-14.534,7.875V71.25z"/><path fill="#472b29" d="M79.262,71.95H43.75c-0.387,0-0.7-0.313-0.7-0.7V41.625c0-0.121,0.031-0.239,0.091-0.344	c2.817-5,8.762-8.231,15.144-8.231c9.199,0,16.684,7.397,16.684,16.49c0,0.037,0,0.074-0.001,0.111	c1.367-0.539,2.807-0.812,4.295-0.812c6.445,0,11.688,5.184,11.688,11.555S85.707,71.95,79.262,71.95z M44.45,70.55h34.812	c5.673,0,10.288-4.556,10.288-10.155S84.935,50.24,79.262,50.24c-1.662,0-3.256,0.386-4.737,1.147	c-0.228,0.117-0.498,0.101-0.708-0.04c-0.212-0.141-0.33-0.385-0.311-0.638c0.031-0.387,0.062-0.774,0.062-1.169	c0-8.32-6.855-15.089-15.283-15.089c-5.817,0-11.225,2.883-13.834,7.361V70.55z"/><path fill="#472b29" d="M68.5,68h-21c-0.276,0-0.5-0.224-0.5-0.5s0.224-0.5,0.5-0.5h21c0.276,0,0.5,0.224,0.5,0.5	S68.776,68,68.5,68z"/><path fill="#472b29" d="M73.5,68h-2c-0.276,0-0.5-0.224-0.5-0.5s0.224-0.5,0.5-0.5h2c0.276,0,0.5,0.224,0.5,0.5	S73.776,68,73.5,68z"/><path fill="#472b29" d="M81.5,68h-6c-0.276,0-0.5-0.224-0.5-0.5s0.224-0.5,0.5-0.5h6c0.276,0,0.5,0.224,0.5,0.5	S81.776,68,81.5,68z"/><path fill="#472b29" d="M39.75,71.95c-0.387,0-0.7-0.313-0.7-0.7V40.734c0-0.387,0.313-0.7,0.7-0.7s0.7,0.313,0.7,0.7V71.25	C40.45,71.637,40.137,71.95,39.75,71.95z"/><path fill="#472b29" d="M35.833,71.95c-0.386,0-0.699-0.313-0.7-0.698l-0.083-31.5c-0.001-0.387,0.312-0.701,0.698-0.702	c0.001,0,0.001,0,0.002,0c0.386,0,0.699,0.313,0.7,0.698l0.083,31.5c0.001,0.387-0.312,0.701-0.698,0.702	C35.834,71.95,35.834,71.95,35.833,71.95z"/><path fill="#472b29" d="M27.833,71.95c-0.386,0-0.699-0.312-0.7-0.698L27.05,44.674c-0.001-0.386,0.312-0.701,0.698-0.702	c0.001,0,0.001,0,0.002,0c0.386,0,0.699,0.312,0.7,0.698l0.083,26.578c0.001,0.386-0.312,0.701-0.698,0.702	C27.834,71.95,27.834,71.95,27.833,71.95z"/><path fill="#472b29" d="M31.75,71.95c-0.387,0-0.7-0.313-0.7-0.7V41.719c0-0.387,0.313-0.7,0.7-0.7s0.7,0.313,0.7,0.7V71.25	C32.45,71.637,32.137,71.95,31.75,71.95z"/><path fill="#472b29" d="M23.75,71.95c-0.387,0-0.7-0.313-0.7-0.7V48.609c0-0.387,0.313-0.7,0.7-0.7s0.7,0.313,0.7,0.7V71.25	C24.45,71.637,24.137,71.95,23.75,71.95z"/><path fill="#472b29" d="M19.833,71.95c-0.386,0-0.698-0.312-0.7-0.698L19.05,48.612c-0.001-0.386,0.311-0.701,0.697-0.703	c0.001,0,0.002,0,0.003,0c0.386,0,0.698,0.312,0.7,0.698l0.083,22.641c0.001,0.386-0.311,0.701-0.697,0.703	C19.835,71.95,19.834,71.95,19.833,71.95z"/><path fill="#472b29" d="M11.75,67.028c-0.387,0-0.7-0.313-0.7-0.7V54.516c0-0.387,0.313-0.7,0.7-0.7s0.7,0.313,0.7,0.7	v11.813C12.45,66.715,12.137,67.028,11.75,67.028z"/><path fill="#472b29" d="M15.75,69.981c-0.387,0-0.7-0.313-0.7-0.7V50.578c0-0.387,0.313-0.7,0.7-0.7s0.7,0.313,0.7,0.7	v18.703C16.45,69.668,16.137,69.981,15.75,69.981z"/></svg>